<?xml version="1.0" standalone="no"?>
<!DOCTYPE svg PUBLIC "-//W3C//DTD SVG 20010904//EN"
 "http://www.w3.org/TR/2001/REC-SVG-20010904/DTD/svg10.dtd">
<svg version="1.0" xmlns="http://www.w3.org/2000/svg"
 width="1079.000000pt" height="1078.000000pt" viewBox="0 0 1079.000000 1078.000000"
 preserveAspectRatio="xMidYMid meet">

<g transform="translate(0.000000,1078.000000) scale(0.100000,-0.100000)"
fill="#000000" stroke="none">
<path d="M0 5390 l0 -5390 2973 1 c2480 1 2964 3 2924 14 -79 22 -260 45 -351
45 l-85 0 -42 40 -41 39 -50 -11 c-40 -10 -51 -9 -58 2 -8 13 -18 159 -22 325
-4 144 12 458 26 532 17 89 30 113 64 114 95 6 119 -10 141 -90 7 -25 19 -58
27 -73 8 -14 14 -33 14 -41 0 -7 8 -23 18 -34 29 -34 61 -45 107 -39 37 6 47
3 76 -21 50 -41 79 -72 79 -87 0 -6 20 -25 45 -40 25 -16 50 -35 56 -42 6 -8
30 -14 53 -14 23 0 46 -4 51 -9 18 -16 122 -41 173 -41 28 0 63 -5 79 -12 41
-16 63 -19 63 -8 0 6 36 10 87 10 111 0 193 24 193 57 0 15 13 31 39 48 24 14
41 34 43 47 2 14 11 24 23 26 18 2 33 22 84 112 21 36 34 71 35 92 2 38 29
110 43 115 7 3 13 14 13 24 0 10 6 19 14 19 8 0 17 8 20 18 3 9 17 29 30 43
13 14 27 35 30 46 4 12 23 39 42 60 19 21 49 54 65 74 54 66 99 108 144 135
25 14 45 23 45 18 0 -4 8 0 18 9 10 9 36 23 57 31 46 16 140 74 171 105 12 12
24 21 28 21 4 0 25 18 47 40 22 22 45 40 50 40 6 0 8 4 5 9 -7 11 18 33 27 24
4 -3 7 3 7 14 0 11 11 28 25 37 14 9 28 29 31 44 4 15 15 39 26 54 10 15 24
52 31 83 6 30 14 55 18 55 11 0 32 117 26 152 -30 185 -48 257 -87 348 -16 36
-32 82 -35 102 -4 23 -13 38 -21 38 -8 0 -14 9 -14 21 0 23 -56 109 -70 109
-6 0 -10 9 -10 20 0 29 -93 116 -154 145 -48 23 -81 62 -90 106 -6 30 -45 105
-68 132 -16 18 -33 27 -54 27 -23 0 -30 5 -31 21 -1 12 -11 31 -22 43 -11 11
-23 33 -26 48 -4 16 -11 28 -17 28 -5 0 -6 5 -3 10 3 6 3 10 -2 10 -9 0 -33
48 -33 65 0 7 -9 23 -21 36 -11 13 -29 34 -40 47 -10 12 -19 35 -19 50 0 16
-10 48 -21 72 -14 29 -18 45 -10 48 14 5 15 82 1 82 -5 0 -10 18 -10 40 0 22
-4 40 -10 40 -5 0 -10 -7 -10 -15 0 -11 -11 -15 -40 -15 -29 0 -40 4 -40 15 0
20 -10 19 -27 -2 -14 -17 -14 -17 -9 0 7 23 -2 21 -25 -6 -10 -13 -18 -17 -19
-9 0 7 -4 11 -9 8 -11 -7 -21 27 -21 70 0 26 -4 32 -23 32 -21 0 -24 -7 -35
-77 -7 -42 -16 -130 -22 -196 -22 -268 -39 -451 -44 -465 -3 -8 -10 -88 -16
-178 -6 -90 -18 -193 -25 -230 -8 -37 -15 -99 -15 -137 0 -47 -5 -78 -16 -93
-19 -27 -29 -27 -61 -3 -13 11 -32 17 -41 15 -75 -24 -75 -24 -96 -119 -8 -35
-17 -51 -29 -53 -25 -5 -45 14 -52 51 -4 18 -17 66 -30 107 -13 41 -26 102
-29 135 -7 80 -55 214 -83 232 -20 13 -24 12 -56 -19 -19 -19 -54 -40 -78 -47
-24 -7 -55 -17 -68 -23 -17 -6 -26 -5 -32 3 -4 8 -20 10 -43 6 -20 -3 -36 -2
-36 3 0 5 -19 0 -42 -10 -24 -11 -51 -20 -60 -20 -10 0 -18 -6 -18 -14 0 -7
-11 -21 -24 -30 -21 -13 -24 -21 -19 -50 3 -19 1 -36 -6 -40 -7 -5 -11 -46
-11 -112 0 -99 -1 -106 -25 -128 -22 -21 -31 -23 -63 -15 -48 11 -86 -4 -135
-53 -30 -31 -45 -38 -75 -38 -20 1 -48 7 -62 15 -39 22 -73 18 -118 -15 -63
-46 -83 -41 -118 28 -46 92 -61 111 -84 105 -11 -3 -20 -12 -20 -19 0 -9 -11
-14 -30 -14 -23 0 -30 5 -30 19 0 10 -9 21 -20 24 -11 3 -24 16 -29 29 -9 22
-9 22 -16 3 -4 -11 -10 -30 -15 -42 -26 -64 -22 -184 10 -358 5 -27 13 -78 18
-113 8 -61 8 -63 -16 -69 -14 -3 -48 1 -76 10 -28 8 -66 18 -83 22 -18 4 -33
10 -33 14 0 4 -17 12 -37 17 -21 5 -36 12 -33 16 9 14 -34 34 -68 33 -19 -1
-38 -8 -43 -16 -14 -22 -11 -89 4 -89 13 0 52 -77 63 -125 5 -24 85 -115 101
-115 4 0 12 -6 64 -50 20 -16 41 -30 47 -30 5 0 15 -7 22 -16 8 -8 21 -19 31
-24 13 -7 16 -6 15 7 -1 12 11 20 37 26 22 5 37 15 37 24 0 12 8 14 38 8 20
-4 37 -8 37 -8 1 -1 8 -24 17 -52 9 -27 22 -84 28 -125 6 -41 17 -88 25 -104
8 -16 15 -44 15 -63 0 -18 4 -33 8 -33 14 0 32 -96 32 -166 0 -36 4 -73 8 -82
13 -26 2 -112 -13 -112 -11 0 -14 -19 -14 -77 0 -42 -4 -79 -9 -82 -5 -3 -12
-40 -15 -81 -4 -41 -11 -106 -17 -145 -5 -38 -9 -100 -10 -137 0 -36 -3 -73
-6 -82 -14 -38 -52 -6 -103 86 -20 34 -46 65 -67 77 -19 11 -34 25 -34 31 0 5
-5 10 -12 10 -6 0 -19 7 -29 16 -9 8 -33 17 -53 19 -20 2 -52 12 -72 24 -20
12 -52 21 -75 21 -22 0 -51 8 -65 17 -18 11 -28 13 -33 5 -8 -13 -197 17 -255
42 -21 9 -51 16 -66 16 -38 0 -60 9 -60 25 0 8 -9 16 -19 20 -11 3 -26 17 -35
30 -9 14 -25 25 -36 25 -26 0 -150 59 -150 71 0 5 -7 9 -15 9 -8 0 -45 14 -82
31 -113 51 -127 56 -160 69 -17 6 -47 29 -67 50 -30 32 -42 39 -74 38 -39 0
-88 19 -173 70 -70 42 -149 101 -149 112 0 5 -5 10 -11 10 -17 0 -64 38 -143
114 -39 38 -81 75 -94 83 -12 9 -22 20 -22 25 0 8 -39 53 -102 120 -10 10 -22
18 -26 18 -10 0 -68 123 -78 165 -4 17 -10 32 -14 35 -3 3 -16 22 -29 43 -12
20 -27 37 -32 37 -5 0 -9 9 -9 20 0 11 -4 20 -9 20 -10 0 -26 39 -41 101 -6
25 -24 59 -40 75 l-28 30 3 280 c2 228 5 287 18 324 9 25 17 56 17 70 0 14 7
44 15 68 12 35 13 48 2 80 -7 20 -14 66 -15 101 -2 36 -8 74 -14 85 -8 14 -8
21 0 24 11 3 -17 60 -46 94 -8 10 -16 34 -17 55 -1 21 -11 58 -22 83 -12 25
-24 61 -28 80 -4 19 -17 50 -28 69 -24 40 -44 128 -58 261 -5 52 -14 108 -19
124 -6 16 -10 75 -10 132 0 84 -3 105 -16 112 -14 8 -14 10 1 25 15 16 15 17
-2 17 -10 0 -28 3 -40 6 -17 5 -23 2 -23 -9 0 -22 -103 -34 -145 -18 -55 23
-63 23 -119 7 -41 -12 -75 -33 -126 -76 -38 -33 -72 -60 -75 -60 -3 0 -18 -11
-32 -24 -14 -13 -37 -30 -52 -37 -14 -8 -50 -31 -79 -52 -29 -21 -70 -45 -90
-54 -20 -8 -49 -24 -63 -34 -26 -18 -96 -45 -135 -51 -27 -4 -54 19 -54 46 0
20 88 126 105 126 13 0 94 66 95 77 0 7 14 20 32 29 44 23 57 38 64 73 9 44
-16 50 -75 18 -26 -15 -85 -34 -132 -43 -46 -8 -105 -24 -131 -35 -37 -15 -71
-19 -167 -19 -117 0 -121 1 -137 25 -19 30 -13 82 14 111 10 11 27 32 36 47
18 27 176 117 206 117 8 0 31 14 50 30 19 16 40 30 45 30 6 0 26 13 45 28 19
16 56 40 82 55 57 33 64 44 73 122 4 33 11 67 16 76 13 26 0 52 -43 83 -22 16
-46 43 -54 61 -18 45 -31 52 -104 58 -291 25 -389 56 -484 154 l-56 58 0 80
c0 50 5 86 12 93 18 18 129 15 323 -9 94 -11 211 -23 261 -26 89 -5 92 -5 105
18 10 16 13 53 12 113 -1 49 2 97 8 107 19 37 -6 98 -64 155 -30 30 -64 54
-75 54 -26 0 -58 17 -109 58 -32 25 -48 31 -67 26 -21 -5 -26 -3 -26 13 0 10
-9 24 -21 31 -13 8 -18 19 -15 29 4 10 -8 29 -33 53 -47 46 -71 118 -71 214 0
88 13 115 61 122 21 4 36 10 34 14 -5 9 55 50 72 50 6 0 28 -8 49 -17 22 -9
45 -18 52 -19 8 -1 19 -9 25 -17 7 -8 39 -23 72 -34 87 -29 90 -29 88 -15 -4
18 9 15 44 -11 27 -20 29 -24 16 -33 -22 -14 -8 -34 23 -34 30 0 105 -66 98
-85 -3 -8 -1 -20 5 -27 38 -47 60 -68 70 -68 7 0 9 -4 6 -10 -3 -6 4 -9 17 -8
13 1 38 -7 56 -17 29 -17 34 -18 47 -4 12 12 16 43 16 152 0 110 3 137 14 137
13 0 26 34 41 108 4 18 10 32 15 32 5 0 9 9 9 19 0 31 40 90 72 107 16 8 39
31 50 50 11 19 24 34 29 34 5 0 9 4 9 9 0 5 18 29 40 52 22 23 38 45 35 47 -2
3 2 16 9 31 7 14 11 32 9 39 -3 6 0 12 5 12 5 0 15 28 22 63 7 34 19 72 26 84
8 12 14 29 14 37 0 8 14 56 30 107 17 51 28 99 26 106 -3 7 1 19 9 27 8 8 15
23 15 33 0 10 14 45 30 77 17 32 30 69 30 82 0 13 5 24 10 24 6 0 10 11 10 25
0 16 5 25 13 23 19 -4 54 36 62 73 4 18 24 49 44 69 20 19 43 44 51 54 13 18
13 19 0 11 -9 -5 -6 2 6 16 11 13 26 37 32 52 7 15 17 25 22 22 6 -3 10 -1 10
5 0 7 6 10 14 7 15 -6 40 15 31 25 -3 3 13 18 35 33 23 16 46 37 51 47 5 10
16 18 24 18 8 0 15 4 15 10 0 5 9 18 21 29 12 11 19 24 15 29 -3 5 5 13 17 19
68 30 117 57 117 64 0 5 6 9 13 9 6 0 20 13 31 28 22 33 59 52 100 52 17 0 42
9 56 20 14 11 30 20 36 20 6 0 19 9 29 20 18 20 49 25 79 14 9 -3 14 -10 11
-14 -3 -4 34 -13 83 -20 116 -15 122 -16 157 -28 17 -6 57 -16 90 -23 33 -7
86 -21 119 -31 32 -11 73 -18 90 -16 28 3 32 7 43 53 6 28 12 46 12 40 3 -20
31 58 31 86 0 15 5 31 10 34 6 3 10 34 10 68 0 34 5 125 11 202 9 115 19 164
52 270 40 130 46 145 110 285 52 113 149 200 222 200 32 0 125 -39 125 -52 0
-13 62 -68 77 -68 14 0 43 51 43 76 0 10 4 31 10 48 5 17 18 69 29 116 50 223
87 305 148 335 59 29 85 21 136 -42 26 -32 56 -76 67 -98 41 -81 77 -121 160
-177 96 -64 113 -65 190 -18 131 82 197 103 266 84 39 -10 66 -84 105 -290 39
-203 75 -313 116 -355 33 -34 54 -35 125 -10 29 11 64 22 78 25 17 4 38 26 65
68 40 63 52 88 85 189 24 72 120 269 131 269 5 0 9 6 9 14 0 18 90 100 148
133 39 23 55 26 145 27 92 1 107 -2 157 -26 30 -15 67 -38 81 -50 31 -27 128
-174 157 -238 23 -50 56 -193 71 -310 26 -196 17 -732 -14 -840 -9 -30 -18
-71 -21 -90 -3 -19 -13 -46 -21 -59 -27 -43 -33 -91 -16 -125 11 -22 12 -31 4
-34 -7 -2 -8 -8 -3 -15 5 -7 17 -36 27 -65 21 -66 28 -468 8 -480 -7 -4 -16
-19 -21 -32 l-9 -24 -25 27 c-27 29 -42 104 -31 158 3 16 2 29 -3 29 -5 0 -8
34 -6 76 1 49 -1 73 -8 69 -5 -3 -10 -21 -10 -38 0 -22 -3 -28 -9 -19 -5 8 -7
-43 -6 -117 2 -72 -1 -133 -6 -137 -5 -3 -9 -21 -9 -40 0 -30 -3 -34 -26 -34
-24 0 -26 -3 -20 -31 3 -17 6 -35 6 -40 0 -5 7 -9 16 -9 15 0 16 -10 11 -74
-4 -53 -2 -76 6 -80 7 -2 2 -5 -10 -5 -20 -1 -23 4 -24 37 l-1 37 -8 -45 c-4
-25 -11 -234 -14 -465 -4 -231 -10 -446 -15 -477 -4 -31 -4 -88 0 -125 4 -37
10 -290 13 -562 3 -271 8 -496 11 -499 3 -3 5 54 5 126 0 81 4 132 10 132 6 0
10 -46 10 -119 0 -78 5 -130 14 -151 9 -21 15 -28 19 -19 3 8 6 5 6 -8 1 -13
7 -23 15 -23 8 0 17 -8 19 -18 4 -16 5 -16 6 1 1 22 51 24 51 2 0 -8 9 -15 20
-15 17 0 20 7 20 50 0 28 -4 50 -10 50 -5 0 -10 20 -10 45 0 38 3 45 19 45 16
0 20 -8 23 -37 5 -61 26 -51 34 16 l7 61 78 0 c65 0 79 -3 79 -16 0 -22 32
-53 38 -36 5 17 22 15 22 -3 0 -10 10 -15 29 -15 26 0 29 4 35 45 4 25 4 49 1
55 -3 6 1 13 9 16 11 4 16 20 16 51 0 31 3 42 12 37 6 -4 8 -3 4 4 -3 6 3 53
14 104 14 65 22 143 25 258 3 91 7 192 10 225 3 33 10 157 14 276 10 242 15
264 66 254 38 -7 74 -33 101 -73 17 -24 20 -41 16 -84 -2 -29 -10 -66 -19 -83
-8 -16 -24 -57 -35 -90 -11 -33 -33 -82 -48 -110 -30 -53 -64 -194 -58 -241 2
-19 14 -36 38 -51 19 -12 43 -30 52 -39 27 -26 81 -122 113 -199 16 -38 40
-86 54 -105 25 -34 26 -41 27 -181 1 -84 6 -154 12 -166 16 -28 61 -33 162
-17 144 23 192 35 265 64 39 15 119 40 180 55 129 33 142 41 215 120 30 33 58
62 63 63 4 2 7 7 7 12 0 5 12 22 28 38 108 116 131 142 147 165 9 15 23 27 30
27 35 0 79 68 96 152 6 29 22 77 35 106 13 28 35 76 49 106 24 52 86 116 112
116 7 0 13 1 14 3 0 1 13 106 29 232 31 255 55 345 109 399 25 25 34 29 49 20
15 -10 17 -31 17 -195 0 -183 -18 -372 -52 -539 -14 -69 -31 -222 -36 -330 -2
-40 1 -45 20 -48 15 -2 39 11 70 37 144 122 222 183 253 197 19 10 60 33 90
52 139 89 330 151 489 159 103 5 116 4 128 -13 30 -42 17 -78 -65 -176 -71
-84 -91 -100 -203 -168 -68 -41 -154 -93 -191 -117 -36 -23 -116 -67 -177 -98
-60 -31 -111 -60 -113 -64 -2 -4 -25 -19 -52 -35 -68 -40 -88 -62 -80 -89 10
-33 70 -85 169 -147 48 -30 94 -64 101 -75 16 -22 18 -83 5 -104 -11 -17 -96
-27 -124 -13 -12 5 -36 15 -54 22 -17 6 -39 20 -49 31 -9 10 -23 19 -30 19 -7
0 -33 16 -59 36 -26 19 -57 39 -71 44 -23 9 -23 8 -22 -35 4 -88 -55 -110
-125 -47 -23 21 -55 47 -71 57 -16 11 -34 24 -41 29 -14 10 -85 -41 -85 -61 0
-20 -115 -121 -140 -123 -15 -1 -63 54 -85 98 -28 56 -46 70 -85 67 -44 -3
-65 -14 -82 -43 -9 -15 -43 -56 -75 -91 -55 -59 -63 -63 -101 -63 -22 0 -50 6
-61 12 -27 14 -78 -11 -91 -44 -4 -13 -15 -29 -22 -37 -8 -8 -24 -34 -37 -59
-12 -25 -31 -54 -41 -65 -10 -11 -42 -67 -70 -123 -29 -57 -59 -106 -66 -109
-8 -3 -14 -11 -14 -19 0 -15 57 -80 68 -78 9 1 83 -107 118 -171 14 -27 30
-52 35 -53 5 -2 9 -10 9 -18 0 -8 4 -14 10 -14 5 0 20 -19 32 -41 38 -70 46
-81 56 -88 14 -9 49 -82 57 -121 4 -19 10 -37 14 -40 19 -15 100 -192 138
-303 45 -131 60 -193 68 -281 3 -28 9 -52 14 -55 4 -4 11 -23 15 -44 6 -30 4
-37 -9 -37 -17 0 -21 -35 -5 -45 15 -9 13 -112 -2 -118 -10 -4 -10 -6 0 -6 16
-1 17 -111 1 -111 -7 0 -5 -9 5 -24 11 -18 14 -35 9 -58 l-7 -33 -7 30 -7 30
-1 -32 c0 -17 4 -33 10 -35 8 -3 12 -78 12 -252 0 -216 -2 -251 -16 -261 -12
-9 -18 -43 -26 -146 -7 -87 -20 -164 -36 -218 -14 -47 -25 -106 -25 -131 0
-25 -7 -55 -15 -66 -8 -12 -24 -60 -36 -109 -13 -51 -32 -98 -45 -115 -13 -15
-24 -35 -24 -44 0 -9 -4 -16 -10 -16 -5 0 -10 -9 -10 -21 0 -11 -19 -50 -43
-87 -24 -37 -54 -86 -67 -110 -13 -23 -34 -49 -47 -57 -13 -9 -23 -22 -23 -30
0 -8 -7 -15 -15 -15 -8 0 -15 -3 -15 -7 -1 -20 -154 -178 -192 -199 -16 -8
-28 -19 -28 -24 0 -6 -5 -10 -11 -10 -6 0 -24 -11 -41 -25 -16 -13 -46 -29
-66 -35 -21 -5 -46 -16 -57 -24 -11 -9 -26 -16 -33 -16 -7 0 -39 -17 -70 -38
-31 -21 -72 -44 -90 -52 -19 -7 -41 -20 -49 -28 -18 -18 -171 -72 -258 -91
-33 -7 -77 -17 -98 -23 -28 -9 -41 -8 -49 0 -7 7 -22 12 -34 12 -12 0 -27 7
-34 15 -9 10 -32 15 -75 15 -43 0 -66 -5 -75 -15 -7 -8 -19 -15 -27 -15 -7 0
-16 -7 -19 -15 -11 -27 -86 -53 -173 -59 -65 -4 -89 -10 -106 -26 -12 -11 -27
-20 -33 -20 -7 0 -12 -5 -12 -10 0 -6 -19 -28 -41 -50 l-41 -40 2156 0 2156 0
0 5390 0 5390 -5395 0 -5395 0 0 -5390z m7567 2238 c-3 -7 -5 -2 -5 12 0 14 2
19 5 13 2 -7 2 -19 0 -25z m3 -138 c0 -53 -4 -90 -10 -90 -6 0 -10 37 -10 90
0 53 4 90 10 90 6 0 10 -37 10 -90z m-356 -127 c-8 -250 -24 -446 -38 -461
-15 -14 -18 21 -18 207 0 196 10 289 36 317 18 20 22 8 20 -63z m-5474 -1233
c0 -5 -9 -10 -20 -10 -11 0 -20 -4 -20 -10 0 -5 -4 -10 -10 -10 -5 0 -10 9
-10 20 0 16 7 20 30 20 17 0 30 -4 30 -10z m5100 -930 c0 -94 -4 -170 -9 -170
-5 0 -9 76 -8 170 0 94 4 170 9 170 4 0 8 -76 8 -170z m140 -140 c0 -22 -4
-40 -10 -40 -5 0 -10 18 -10 40 0 22 5 40 10 40 6 0 10 -18 10 -40z m263 -68
c-21 -21 -28 -6 -13 25 11 26 13 26 20 8 4 -12 2 -25 -7 -33z m37 38 c0 -5 -4
-10 -10 -10 -5 0 -10 5 -10 10 0 6 5 10 10 10 6 0 10 -4 10 -10z m-2124 -4088
c-4 -3 -11 0 -16 8 -15 24 -11 33 6 15 9 -9 13 -19 10 -23z"/>
<path d="M6826 8144 c-9 -22 -8 -24 9 -24 8 0 15 9 15 20 0 24 -15 27 -24 4z"/>
<path d="M4429 8087 c-28 -24 -49 -74 -49 -116 0 -15 9 -51 21 -81 11 -30 25
-68 30 -85 5 -16 20 -42 32 -56 31 -34 190 -159 307 -242 52 -36 106 -74 118
-83 28 -19 23 -25 -38 -48 -25 -10 -61 -29 -80 -44 -19 -15 -55 -40 -78 -57
-61 -40 -102 -123 -102 -203 0 -55 -4 -65 -53 -139 -34 -51 -62 -109 -79 -164
-81 -257 -95 -335 -101 -539 -5 -162 10 -221 60 -245 19 -9 38 -28 44 -42 5
-15 25 -44 44 -65 19 -21 35 -47 35 -58 0 -29 33 -42 88 -34 37 5 51 2 61 -10
25 -30 70 -20 110 24 31 34 42 40 78 40 53 0 80 26 89 86 3 24 12 51 19 61 11
15 16 16 38 4 51 -27 70 0 117 162 16 57 30 113 30 124 0 10 15 34 34 52 45
44 68 100 100 241 25 112 25 123 22 410 -2 162 -7 314 -11 338 -8 42 -7 44 44
94 28 28 55 62 59 77 4 14 7 78 7 142 0 114 -1 118 -36 185 -26 51 -47 76 -85
102 -45 31 -54 34 -110 30 -78 -5 -130 -37 -144 -89 -17 -61 -34 -67 -79 -28
-142 125 -226 186 -325 238 -66 34 -89 41 -135 41 -43 -1 -62 -6 -82 -23z
m168 -86 c33 -16 99 -60 146 -98 47 -37 105 -81 127 -98 75 -54 138 -129 145
-171 3 -22 20 -69 37 -105 53 -114 26 -116 -142 -15 -68 41 -146 93 -174 115
-28 23 -86 69 -129 102 -83 65 -112 108 -132 194 -25 106 12 129 122 76z m665
-158 c41 -37 88 -158 87 -223 0 -48 -32 -121 -60 -142 -32 -23 -119 -28 -130
-8 -16 30 -67 145 -74 168 -15 50 30 184 74 220 20 17 77 9 103 -15z m-372
-538 c10 -12 10 -24 2 -53 -31 -108 -34 -124 -22 -136 14 -14 50 26 50 55 0
33 28 89 44 89 13 0 16 -12 16 -60 0 -76 16 -79 60 -10 43 67 64 64 68 -10 6
-99 38 -107 73 -18 15 39 31 64 42 66 15 3 17 -5 16 -55 -1 -68 -11 -139 -30
-205 -13 -46 -12 -48 13 -71 25 -23 26 -28 22 -108 -6 -114 -23 -236 -36 -265
-10 -21 -16 -23 -49 -18 -40 7 -40 7 -54 -63 -4 -18 -12 -93 -19 -168 -7 -74
-15 -138 -19 -141 -15 -16 -25 13 -31 96 -8 101 -12 120 -31 120 -7 0 -21 -38
-35 -97 -33 -140 -61 -233 -70 -233 -12 0 -20 27 -20 65 0 37 -24 65 -42 47
-5 -5 -21 -52 -34 -104 -27 -100 -52 -160 -71 -166 -23 -7 -44 46 -50 123 -7
91 -26 98 -51 20 -22 -66 -48 -72 -57 -13 -10 68 -15 77 -38 80 -13 2 -29 17
-40 38 -17 34 -35 40 -49 17 -5 -9 -10 -9 -18 -1 -30 30 -14 299 27 459 47
180 131 358 209 445 36 40 41 59 23 91 -9 17 -5 28 23 64 39 49 136 135 154
135 6 0 17 -7 24 -15z"/>
<path d="M4995 6941 c-42 -26 -60 -48 -85 -106 -35 -80 -24 -201 20 -225 30
-16 75 -12 94 8 16 19 53 159 63 244 5 41 2 50 -20 72 -31 31 -33 31 -72 7z
m25 -118 c0 -23 -34 -117 -45 -125 -17 -12 -26 4 -20 35 8 40 25 88 38 104 11
16 27 7 27 -14z"/>
<path d="M6205 8066 c-60 -19 -74 -28 -197 -131 -125 -106 -136 -109 -210 -70
-29 15 -63 25 -89 25 -59 0 -159 -51 -201 -103 l-33 -42 0 -120 c1 -72 6 -136
14 -159 16 -45 68 -106 118 -137 35 -22 35 -23 29 -73 -3 -28 -11 -73 -17
-101 -6 -27 -13 -198 -16 -380 -4 -273 -2 -345 11 -419 18 -102 52 -159 100
-164 35 -4 76 22 76 49 0 23 29 38 40 20 4 -7 10 -43 14 -80 9 -96 33 -170 68
-205 26 -25 31 -40 36 -93 4 -58 3 -63 -19 -72 -27 -11 -243 -38 -369 -47 -47
-3 -128 -11 -180 -19 -52 -7 -151 -18 -220 -24 -252 -22 -457 -42 -520 -50
-36 -5 -105 -14 -155 -21 -49 -6 -127 -16 -172 -22 -65 -8 -87 -15 -106 -34
-23 -23 -24 -26 -11 -67 7 -23 25 -82 40 -132 67 -220 161 -389 291 -521 178
-181 434 -274 754 -274 73 0 148 4 168 9 20 6 90 22 156 36 164 37 381 110
430 146 155 115 190 139 206 144 11 4 19 11 19 17 0 12 78 140 90 148 38 26
174 314 214 455 7 25 46 255 46 273 0 7 -13 18 -30 23 -37 13 -37 16 -14 261
19 203 14 539 -9 683 -8 50 -23 146 -32 215 -9 69 -23 148 -32 175 -46 146
-118 219 -167 170 -21 -22 -32 -19 -56 15 -19 27 -27 30 -74 30 -35 0 -58 -5
-66 -15 -9 -11 -26 -13 -73 -8 -55 5 -64 3 -81 -16 -23 -25 -39 -27 -57 -5 -8
10 -22 14 -40 10 -47 -9 -41 6 14 34 93 48 191 103 222 126 17 12 49 31 72 43
103 51 199 188 224 318 11 55 11 66 -6 103 -38 84 -100 108 -200 76z m140 -86
c17 -53 -20 -165 -77 -232 -55 -66 -141 -121 -368 -235 -238 -120 -274 -122
-325 -22 -18 34 -32 162 -21 202 8 34 72 109 103 123 21 9 34 8 64 -5 69 -29
76 -105 16 -168 -36 -38 -31 -48 17 -39 38 7 74 46 100 107 18 42 53 75 131
124 33 20 82 55 109 78 91 76 236 114 251 67z m-571 -702 c9 -12 16 -35 16
-50 0 -38 26 -37 48 2 31 54 52 37 70 -57 7 -34 19 -78 27 -97 30 -70 49 -37
60 99 3 50 9 98 11 108 6 20 33 23 38 5 3 -7 19 -65 36 -129 37 -133 42 -144
64 -136 13 5 16 25 17 109 1 117 8 152 31 156 28 5 37 -26 77 -258 18 -101 33
-135 61 -135 l25 0 0 162 c0 88 4 165 8 169 35 36 82 -116 97 -316 23 -295 38
-1004 22 -1014 -4 -2 -13 -2 -19 2 -10 7 -44 110 -58 180 -7 36 -37 59 -52 39
-11 -14 -29 -99 -39 -179 -8 -69 -22 -93 -51 -84 -24 8 -36 36 -54 118 -7 32
-20 65 -30 73 -16 15 -18 14 -33 -7 -9 -12 -22 -49 -28 -81 -17 -83 -37 -73
-65 33 -12 47 -29 126 -38 175 -22 129 -24 135 -40 135 -19 0 -35 -31 -35 -68
0 -31 -24 -61 -34 -43 -6 9 -22 131 -45 334 -12 114 -45 115 -70 0 -25 -113
-62 -223 -76 -223 -34 0 -40 66 -38 410 2 335 12 511 32 563 13 33 44 36 65 5z
m604 -1411 c2 -19 -1 -27 -12 -27 -11 0 -16 10 -16 31 0 38 24 35 28 -4z m150
-83 c10 -18 7 -36 -27 -159 -46 -163 -141 -386 -178 -417 -25 -21 -31 7 -38
197 -9 227 -5 330 15 349 8 9 53 22 100 29 114 19 118 19 128 1z m-329 -43
c16 -29 26 -616 12 -669 -20 -71 -125 -163 -271 -237 -76 -38 -107 -46 -119
-31 -12 14 -20 92 -51 461 -24 289 -26 408 -6 427 8 9 60 20 127 27 63 8 143
19 179 26 94 19 118 18 129 -4z m-527 -101 c7 -48 39 -426 59 -697 13 -185 14
-183 -59 -207 -64 -21 -248 -56 -295 -56 -34 0 -40 4 -52 33 -22 54 -114 749
-115 869 0 26 6 53 14 60 8 9 61 19 137 27 68 7 133 14 144 16 11 1 51 2 90 1
l70 -1 7 -45z m-544 -12 c12 -17 35 -146 66 -383 46 -347 59 -546 36 -560 -27
-17 -324 55 -403 97 -37 19 -45 38 -66 158 -51 290 -80 626 -55 650 10 10 284
47 360 49 31 1 56 -4 62 -11z m-514 -64 c9 -8 16 -18 16 -22 0 -8 8 -75 39
-362 11 -102 22 -212 23 -245 3 -53 1 -60 -16 -60 -27 0 -123 88 -186 170 -80
104 -204 362 -216 451 -6 40 -5 42 27 54 37 14 140 26 236 29 44 1 66 -3 77
-15z"/>
<path d="M6058 6978 c-31 -24 -38 -67 -38 -236 0 -236 26 -352 92 -407 37 -31
50 -31 85 -1 28 24 28 25 27 143 -2 119 -21 261 -50 363 -43 154 -39 145 -70
148 -16 2 -37 -3 -46 -10z m64 -195 c14 -106 20 -363 8 -334 -14 33 -38 180
-44 268 -4 67 8 152 21 139 3 -3 10 -36 15 -73z"/>
<path d="M6862 7700 c-3 -104 -1 -120 12 -120 11 0 16 9 16 28 0 15 3 38 7 51
5 20 3 23 -10 18 -14 -5 -17 0 -17 28 0 23 5 35 14 35 11 0 12 8 4 40 -6 22
-13 40 -17 40 -3 0 -7 -54 -9 -120z"/>
<path d="M1471 6124 c0 -11 3 -14 6 -6 3 7 2 16 -1 19 -3 4 -6 -2 -5 -13z"/>
<path d="M1500 6116 c0 -8 5 -18 10 -21 6 -3 10 1 10 9 0 8 -4 18 -10 21 -5 3
-10 -1 -10 -9z"/>
<path d="M6290 4910 c0 -5 6 -10 13 -10 7 0 24 -12 36 -26 20 -23 23 -34 17
-79 -7 -61 3 -175 15 -175 5 0 9 17 9 37 0 20 5 52 12 70 9 24 9 39 2 51 -6 9
-16 40 -23 68 -9 38 -19 54 -37 63 -31 14 -44 14 -44 1z"/>
<path d="M7048 4780 l-3 -80 63 0 62 0 0 80 0 80 -59 0 -59 0 -4 -80z"/>
<path d="M6782 4500 c0 -19 2 -27 5 -17 2 9 2 25 0 35 -3 9 -5 1 -5 -18z"/>
<path d="M3636 4281 c-3 -4 -6 -23 -8 -42 -1 -19 -11 -44 -22 -55 -12 -12 -32
-56 -45 -98 -19 -62 -30 -82 -59 -104 -61 -47 -121 -58 -196 -37 -26 7 -27 6
-17 -13 7 -14 8 -23 1 -27 -13 -8 -14 -325 -1 -325 12 0 28 -50 36 -112 4 -26
13 -49 21 -52 8 -3 14 -20 14 -41 0 -19 5 -35 10 -35 6 0 10 -7 10 -15 0 -20
39 -80 80 -125 17 -19 38 -47 46 -62 8 -15 25 -30 38 -34 14 -3 27 -12 30 -20
3 -8 10 -14 15 -14 6 0 22 -11 37 -25 15 -14 33 -25 40 -25 8 0 14 -3 14 -7 0
-12 63 -47 84 -48 25 0 32 -22 9 -28 -13 -3 -12 -5 6 -6 13 0 30 7 38 17 10
12 16 14 19 5 8 -19 28 -16 42 7 7 12 17 18 21 15 5 -3 14 8 19 25 9 23 7 42
-8 87 -41 129 -69 232 -85 308 -9 44 -23 109 -31 143 -8 35 -21 163 -30 285
-18 263 -26 316 -59 380 -14 27 -25 55 -25 62 0 7 -7 16 -16 19 -20 8 -22 8
-28 -3z"/>
<path d="M6785 4220 c-3 -11 -2 -28 4 -37 8 -15 10 -11 11 20 0 41 -5 47 -15
17z"/>
<path d="M6328 4009 c-3 -8 -4 -27 -1 -42 3 -15 -2 -45 -11 -67 -18 -46 -21
-90 -5 -90 6 0 8 -9 4 -20 -6 -20 18 -40 32 -27 8 8 10 217 1 217 -3 0 -8 10
-10 23 -2 17 -5 18 -10 6z"/>
<path d="M6780 3941 c0 -22 5 -43 10 -46 6 -4 10 12 10 39 0 25 -4 46 -10 46
-5 0 -10 -18 -10 -39z"/>
</g>
</svg>
