<svg width="251" height="51" viewBox="0 0 251 51" fill="none" xmlns="http://www.w3.org/2000/svg">
<path d="M34.4973 22.215V20.5141C34.4973 19.2951 34.15 18.232 33.4555 17.3249C32.7609 16.4035 31.8325 15.6381 30.6702 15.0286C29.5221 14.4049 28.1968 13.9372 26.6943 13.6253C25.1918 13.3135 23.6326 13.1576 22.0167 13.1576C19.2669 13.1576 16.8998 13.4623 14.9154 14.0718C12.9309 14.6672 11.3009 15.5247 10.0252 16.6445C8.7495 17.7501 7.8069 19.0896 7.1974 20.6629C6.58791 22.2363 6.28316 23.9868 6.28316 25.9145C6.28316 27.8564 6.60917 29.6141 7.26119 31.1874C7.91321 32.7466 8.89125 34.079 10.1953 35.1846C11.4993 36.2902 13.1223 37.1407 15.0642 37.736C17.0203 38.3313 19.2953 38.629 21.8892 38.629C23.3491 38.629 24.7453 38.5014 26.0777 38.2463C27.4101 37.977 28.622 37.5872 29.7134 37.0769C30.819 36.5666 31.7829 35.9358 32.605 35.1846C33.4271 34.4192 34.0579 33.5333 34.4973 32.5269H37.4314C36.9211 33.7742 36.2124 34.9224 35.3052 35.9713C34.4123 37.006 33.3066 37.9061 31.9884 38.6715C30.6702 39.4227 29.1394 40.011 27.3959 40.4362C25.6525 40.8614 23.6822 41.0741 21.4852 41.0741C18.9196 41.0741 16.5312 40.7551 14.32 40.1173C12.1088 39.4794 10.1882 38.5298 8.55815 37.2682C6.94227 36.0067 5.67366 34.4263 4.75232 32.5269C3.83098 30.6275 3.37032 28.4234 3.37032 25.9145C3.37032 23.4057 3.83098 21.2016 4.75232 19.3022C5.68783 17.4028 6.9777 15.8224 8.62193 14.5608C10.2662 13.2993 12.2081 12.3496 14.4476 11.7118C16.6872 11.0739 19.1181 10.755 21.7403 10.755C23.4554 10.755 24.9579 10.8613 26.2478 11.0739C27.5518 11.2866 28.7 11.563 29.6922 11.9031C30.6986 12.2292 31.5845 12.6048 32.3499 13.03C33.1153 13.4411 33.8311 13.845 34.4973 14.2419V11.2866H36.8999V22.215H34.4973ZM94.1786 38.14C93.5266 38.466 92.8037 38.8062 92.0099 39.1605C91.2162 39.5007 90.3586 39.8125 89.4373 40.096C88.5159 40.3795 87.5379 40.6134 86.5032 40.7977C85.4684 40.9819 84.3841 41.0741 83.2502 41.0741C81.9745 41.0741 80.8192 40.9465 79.7845 40.6914C78.7498 40.4362 77.871 40.0606 77.1481 39.5645C76.4252 39.0542 75.8653 38.4305 75.4684 37.6935C75.0715 36.9422 74.8731 36.0776 74.8731 35.0996C74.8731 33.5829 75.3621 32.3426 76.3401 31.3788C77.3182 30.4149 78.6647 29.6495 80.3798 29.0825C82.1091 28.5014 84.1502 28.0761 86.5032 27.8068C88.8561 27.5375 91.4146 27.3391 94.1786 27.2115V26.2122C94.1786 25.461 93.9731 24.816 93.562 24.2774C93.151 23.7388 92.5982 23.2994 91.9036 22.9592C91.2091 22.619 90.4011 22.3709 89.4798 22.215C88.5726 22.0449 87.6088 21.9599 86.5882 21.9599C85.3976 21.9599 84.3558 22.0378 83.4628 22.1938C82.584 22.3355 81.8398 22.5552 81.2303 22.8529C80.6208 23.1364 80.1318 23.4907 79.7632 23.916C79.4089 24.327 79.1467 24.8019 78.9766 25.3405L76.2763 24.7026C76.7299 23.1151 77.8072 21.8819 79.5081 21.0031C81.2232 20.1243 83.5549 19.6849 86.5032 19.6849C87.9915 19.6849 89.3664 19.8125 90.6279 20.0676C91.8894 20.3227 92.9738 20.7267 93.881 21.2795C94.8023 21.8323 95.5181 22.5552 96.0284 23.4482C96.5528 24.327 96.8151 25.3972 96.8151 26.6587V38.0974H101.875V40.5H94.1786V38.14ZM94.1786 29.444C91.0744 29.5574 88.4592 29.7629 86.3331 30.0606C84.2069 30.344 82.4847 30.7197 81.1665 31.1874C79.8625 31.641 78.9199 32.1867 78.3387 32.8246C77.7717 33.4482 77.4883 34.164 77.4883 34.972C77.4883 36.2193 78.0269 37.169 79.1041 37.821C80.1956 38.4731 81.7902 38.7991 83.888 38.7991C84.781 38.7991 85.7307 38.6999 86.7371 38.5014C87.7576 38.303 88.7427 38.0549 89.6924 37.7573C90.6421 37.4454 91.5138 37.0981 92.3076 36.7154C93.1014 36.3327 93.725 35.9571 94.1786 35.5886V29.444ZM102.343 20.259H107.829V13.2426H110.486V20.259H124.732V22.6403H110.486V34.4404C110.486 35.2767 110.635 35.9713 110.933 36.5241C111.245 37.0769 111.677 37.5163 112.23 37.8423C112.783 38.1683 113.442 38.3951 114.207 38.5227C114.987 38.6502 115.837 38.714 116.758 38.714C117.68 38.714 118.523 38.6573 119.289 38.5439C120.054 38.4305 120.749 38.2888 121.372 38.1187C121.996 37.9344 122.563 37.7289 123.073 37.5021C123.598 37.2611 124.072 37.0131 124.498 36.758L125.816 38.8841C125.291 39.1818 124.696 39.4653 124.03 39.7346C123.378 39.9897 122.669 40.2165 121.904 40.415C121.138 40.5992 120.323 40.7481 119.459 40.8614C118.594 40.9748 117.708 41.0315 116.801 41.0315C115.44 41.0315 114.207 40.9181 113.101 40.6914C111.996 40.4646 111.053 40.096 110.274 39.5858C109.494 39.0755 108.892 38.4093 108.466 37.5872C108.041 36.7509 107.829 35.7303 107.829 34.5255V22.6403H102.343V20.259ZM126.624 11.2866H134.065V33.8876C134.065 34.7381 134.136 35.4327 134.278 35.9713C134.42 36.4957 134.639 36.9068 134.937 37.2045C135.249 37.4879 135.646 37.6793 136.128 37.7785C136.624 37.8777 137.212 37.9273 137.892 37.9273H139.976V40.5H137.935C136.801 40.5 135.823 40.4008 135.001 40.2023C134.179 39.9897 133.498 39.6283 132.96 39.118C132.435 38.6077 132.046 37.9273 131.79 37.0769C131.535 36.2122 131.408 35.1208 131.408 33.8026V13.6679H126.624V11.2866ZM168.701 30.4007C168.701 32.2576 168.367 33.8593 167.701 35.2059C167.035 36.5383 166.121 37.6439 164.958 38.5227C163.796 39.3873 162.421 40.0322 160.834 40.4575C159.26 40.8685 157.559 41.0741 155.731 41.0741C153.888 41.0741 152.173 40.8685 150.586 40.4575C148.998 40.0322 147.616 39.3873 146.44 38.5227C145.277 37.6439 144.363 36.5383 143.697 35.2059C143.031 33.8593 142.698 32.2576 142.698 30.4007C142.698 28.5581 143.031 26.9634 143.697 25.6169C144.377 24.2561 145.306 23.1434 146.482 22.2788C147.659 21.4 149.041 20.748 150.628 20.3227C152.216 19.8975 153.917 19.6849 155.731 19.6849C157.559 19.6849 159.26 19.8975 160.834 20.3227C162.421 20.7338 163.796 21.3787 164.958 22.2575C166.121 23.1222 167.035 24.2349 167.701 25.5956C168.367 26.9422 168.701 28.5439 168.701 30.4007ZM166.085 30.4007C166.085 27.6651 165.214 25.5744 163.47 24.1286C161.741 22.6828 159.161 21.9599 155.731 21.9599C152.287 21.9599 149.686 22.6828 147.928 24.1286C146.184 25.5744 145.313 27.6651 145.313 30.4007C145.313 33.1364 146.184 35.22 147.928 36.6517C149.686 38.0833 152.287 38.7991 155.731 38.7991C159.161 38.7991 161.741 38.0833 163.47 36.6517C165.214 35.2059 166.085 33.1222 166.085 30.4007ZM198.892 30.4007C198.892 32.2576 198.559 33.8593 197.893 35.2059C197.227 36.5383 196.312 37.6439 195.15 38.5227C193.988 39.3873 192.613 40.0322 191.025 40.4575C189.452 40.8685 187.751 41.0741 185.922 41.0741C184.08 41.0741 182.365 40.8685 180.777 40.4575C179.19 40.0322 177.808 39.3873 176.631 38.5227C175.469 37.6439 174.555 36.5383 173.888 35.2059C173.222 33.8593 172.889 32.2576 172.889 30.4007C172.889 28.5581 173.222 26.9634 173.888 25.6169C174.569 24.2561 175.497 23.1434 176.674 22.2788C177.85 21.4 179.232 20.748 180.82 20.3227C182.407 19.8975 184.108 19.6849 185.922 19.6849C187.751 19.6849 189.452 19.8975 191.025 20.3227C192.613 20.7338 193.988 21.3787 195.15 22.2575C196.312 23.1222 197.227 24.2349 197.893 25.5956C198.559 26.9422 198.892 28.5439 198.892 30.4007ZM196.277 30.4007C196.277 27.6651 195.405 25.5744 193.662 24.1286C191.932 22.6828 189.353 21.9599 185.922 21.9599C182.478 21.9599 179.877 22.6828 178.119 24.1286C176.376 25.5744 175.504 27.6651 175.504 30.4007C175.504 33.1364 176.376 35.22 178.119 36.6517C179.877 38.0833 182.478 38.7991 185.922 38.7991C189.353 38.7991 191.932 38.0833 193.662 36.6517C195.405 35.2059 196.277 33.1222 196.277 30.4007ZM237.354 38.0974H242.138V27.4029C242.138 26.3256 242.003 25.4397 241.734 24.7452C241.465 24.0364 241.082 23.4765 240.586 23.0655C240.09 22.6544 239.487 22.3709 238.779 22.215C238.084 22.0449 237.305 21.9599 236.44 21.9599C235.519 21.9599 234.619 22.1016 233.74 22.3851C232.861 22.6686 232.018 23.0301 231.21 23.4695C230.402 23.9089 229.65 24.3908 228.956 24.9152C228.261 25.4255 227.652 25.9145 227.127 26.3823V26.6162V38.0974H231.911V40.5H219.686V38.0974H224.47V27.4029C224.47 26.3256 224.335 25.4397 224.066 24.7452C223.796 24.0364 223.407 23.4765 222.896 23.0655C222.4 22.6544 221.798 22.3709 221.089 22.215C220.395 22.0449 219.622 21.9599 218.772 21.9599C217.822 21.9599 216.901 22.1016 216.008 22.3851C215.115 22.6686 214.264 23.023 213.456 23.4482C212.662 23.8734 211.925 24.3483 211.245 24.8727C210.565 25.383 209.962 25.872 209.438 26.3398V38.0974H214.243V40.5H201.996V38.0974H206.78V22.6403H201.996V20.259H209.438V23.8734C210.104 23.2923 210.813 22.7395 211.564 22.215C212.315 21.6906 213.109 21.237 213.945 20.8543C214.782 20.4574 215.653 20.1456 216.56 19.9188C217.482 19.6778 218.446 19.5573 219.452 19.5573C221.479 19.5573 223.095 19.9613 224.3 20.7692C225.504 21.563 226.327 22.6686 226.766 24.086C227.432 23.5191 228.162 22.9663 228.956 22.4276C229.75 21.8748 230.586 21.3858 231.465 20.9606C232.358 20.5354 233.279 20.1952 234.229 19.94C235.193 19.6849 236.164 19.5573 237.142 19.5573C238.417 19.5573 239.53 19.7274 240.48 20.0676C241.444 20.3936 242.244 20.8614 242.882 21.4709C243.52 22.0804 243.995 22.8245 244.307 23.7033C244.633 24.568 244.796 25.5389 244.796 26.6162V38.0974H249.601V40.5H237.354V38.0974Z" fill="white"/>
<path d="M41.8666 6.16077H47.745V9.64427M47.745 32.5047V25.32M47.745 32.5047C47.745 32.5047 47.745 36.4237 47.745 39.0363C47.745 41.7491 41.8666 40.1249 41.8666 35.3351C41.8666 31.1984 47.745 32.5047 47.745 32.5047ZM47.745 25.32C47.745 17.6999 66.6865 9.64427 66.6865 19.5505V44.4793M47.745 25.32V13.3455M60.3727 44.4793H72.7827M47.745 9.64427H44.0438M47.745 9.64427V13.3455M47.745 13.3455H43.1729" stroke="white" stroke-width="1.5"/>
</svg>
