<svg width="291" height="114" viewBox="0 0 291 114" fill="none" xmlns="http://www.w3.org/2000/svg">
<path d="M78.0762 48.0078V44.1016C78.0762 41.3021 77.2786 38.8607 75.6836 36.7773C74.0885 34.6615 71.9564 32.9036 69.2871 31.5039C66.6504 30.0716 63.6068 28.9974 60.1562 28.2812C56.7057 27.5651 53.125 27.207 49.4141 27.207C43.099 27.207 37.6628 27.9069 33.1055 29.3066C28.5482 30.6738 24.8047 32.6432 21.875 35.2148C18.9453 37.7539 16.7806 40.8301 15.3809 44.4434C13.9811 48.0566 13.2812 52.0768 13.2812 56.5039C13.2812 60.9635 14.0299 65 15.5273 68.6133C17.0247 72.194 19.2708 75.2539 22.2656 77.793C25.2604 80.332 28.9876 82.2852 33.4473 83.6523C37.9395 85.0195 43.1641 85.7031 49.1211 85.7031C52.474 85.7031 55.6803 85.4102 58.7402 84.8242C61.8001 84.2057 64.5833 83.3105 67.0898 82.1387C69.6289 80.9668 71.8424 79.5182 73.7305 77.793C75.6185 76.0352 77.0671 74.0007 78.0762 71.6895H84.8145C83.6426 74.554 82.015 77.1908 79.9316 79.5996C77.8809 81.9759 75.3418 84.043 72.3145 85.8008C69.2871 87.526 65.7715 88.877 61.7676 89.8535C57.7637 90.8301 53.2389 91.3184 48.1934 91.3184C42.3014 91.3184 36.8164 90.5859 31.7383 89.1211C26.6602 87.6562 22.2493 85.4753 18.5059 82.5781C14.7949 79.681 11.8815 76.0514 9.76562 71.6895C7.64974 67.3275 6.5918 62.2656 6.5918 56.5039C6.5918 50.7422 7.64974 45.6803 9.76562 41.3184C11.9141 36.9564 14.8763 33.3268 18.6523 30.4297C22.4284 27.5326 26.888 25.3516 32.0312 23.8867C37.1745 22.4219 42.7572 21.6895 48.7793 21.6895C52.7181 21.6895 56.1686 21.9336 59.1309 22.4219C62.1257 22.9102 64.7624 23.5449 67.041 24.3262C69.3522 25.0749 71.3867 25.9375 73.1445 26.9141C74.9023 27.8581 76.5462 28.7858 78.0762 29.6973V22.9102H83.5938V48.0078H78.0762ZM215.137 84.5801C213.639 85.3288 211.979 86.11 210.156 86.9238C208.333 87.7051 206.364 88.4212 204.248 89.0723C202.132 89.7233 199.886 90.2604 197.51 90.6836C195.133 91.1068 192.643 91.3184 190.039 91.3184C187.109 91.3184 184.456 91.0254 182.08 90.4395C179.704 89.8535 177.686 88.9909 176.025 87.8516C174.365 86.6797 173.079 85.2474 172.168 83.5547C171.257 81.8294 170.801 79.8438 170.801 77.5977C170.801 74.1146 171.924 71.2663 174.17 69.0527C176.416 66.8392 179.508 65.0814 183.447 63.7793C187.419 62.4447 192.106 61.4681 197.51 60.8496C202.913 60.2311 208.789 59.7754 215.137 59.4824V57.1875C215.137 55.4622 214.665 53.9811 213.721 52.7441C212.777 51.5072 211.507 50.498 209.912 49.7168C208.317 48.9355 206.462 48.3659 204.346 48.0078C202.262 47.6172 200.049 47.4219 197.705 47.4219C194.971 47.4219 192.578 47.6009 190.527 47.959C188.509 48.2845 186.8 48.7891 185.4 49.4727C184.001 50.1237 182.878 50.9375 182.031 51.9141C181.217 52.8581 180.615 53.9486 180.225 55.1855L174.023 53.7207C175.065 50.0749 177.539 47.2428 181.445 45.2246C185.384 43.2064 190.739 42.1973 197.51 42.1973C200.928 42.1973 204.085 42.4902 206.982 43.0762C209.88 43.6621 212.37 44.5898 214.453 45.8594C216.569 47.1289 218.213 48.7891 219.385 50.8398C220.589 52.8581 221.191 55.3158 221.191 58.2129V84.4824H232.812V90H215.137V84.5801ZM215.137 64.6094C208.008 64.8698 202.002 65.3418 197.119 66.0254C192.236 66.6764 188.281 67.5391 185.254 68.6133C182.259 69.6549 180.094 70.9082 178.76 72.373C177.458 73.8053 176.807 75.4492 176.807 77.3047C176.807 80.1693 178.044 82.3503 180.518 83.8477C183.024 85.3451 186.686 86.0938 191.504 86.0938C193.555 86.0938 195.736 85.8659 198.047 85.4102C200.391 84.9544 202.653 84.3848 204.834 83.7012C207.015 82.985 209.017 82.1875 210.84 81.3086C212.663 80.4297 214.095 79.5671 215.137 78.7207V64.6094ZM233.887 43.5156H246.484V27.4023H252.588V43.5156H285.303V48.9844H252.588V76.084C252.588 78.0046 252.93 79.5996 253.613 80.8691C254.329 82.1387 255.322 83.1478 256.592 83.8965C257.861 84.6452 259.375 85.166 261.133 85.459C262.923 85.752 264.876 85.8984 266.992 85.8984C269.108 85.8984 271.045 85.7682 272.803 85.5078C274.561 85.2474 276.156 84.9219 277.588 84.5312C279.02 84.1081 280.322 83.6361 281.494 83.1152C282.699 82.5618 283.789 81.9922 284.766 81.4062L287.793 86.2891C286.589 86.9727 285.221 87.6237 283.691 88.2422C282.194 88.8281 280.566 89.349 278.809 89.8047C277.051 90.2279 275.179 90.5697 273.193 90.8301C271.208 91.0905 269.173 91.2207 267.09 91.2207C263.965 91.2207 261.133 90.9603 258.594 90.4395C256.055 89.9186 253.89 89.0723 252.1 87.9004C250.309 86.7285 248.926 85.1986 247.949 83.3105C246.973 81.39 246.484 79.0462 246.484 76.2793V48.9844H233.887V43.5156Z" fill="white"/>
<path d="M95 13H108.5V21M108.5 73.5V57M108.5 73.5C108.5 73.5 108.5 82.5 108.5 88.5C108.5 94.7301 95 91 95 80C95 70.5 108.5 73.5 108.5 73.5ZM108.5 57C108.5 39.5 152 21 152 43.75V101M108.5 57V29.5M137.5 101H166M108.5 21H100M108.5 21V29.5M108.5 29.5H98" stroke="#5B9132" stroke-width="6"/>
</svg>
